<?xml version="1.0" encoding="utf-8"?>
<!-- Generator: Adobe Illustrator 15.1.0, SVG Export Plug-In . SVG Version: 6.00 Build 0)  -->
<!DOCTYPE svg PUBLIC "-//W3C//DTD SVG 1.1//EN" "http://www.w3.org/Graphics/SVG/1.1/DTD/svg11.dtd">
<svg version="1.1" id="Ebene_1" xmlns="http://www.w3.org/2000/svg" xmlns:xlink="http://www.w3.org/1999/xlink" x="0px" y="0px"
	 width="231px" height="129.299px" viewBox="0 0 231 129.299" enable-background="new 0 0 231 129.299" xml:space="preserve">
<path fill="#FFFFFF" d="M216.125,43.856l2.78-0.143c0,0-0.01,1.059-1.23,1.158C216.187,44.991,216.125,43.856,216.125,43.856
	L216.125,43.856z"/>
<path fill="#FFFFFF" d="M272.593-110.753l2.086-0.107c0,0-0.008,0.794-0.924,0.869C272.64-109.901,272.593-110.753,272.593-110.753
	L272.593-110.753z"/>
<g>
	<g>
		<g>
			<path fill="#111111" d="M123.575,126.204h-0.043c-0.261,0-0.47-0.212-0.463-0.472l0.702-30.451l2.067-0.24l-1.763,30.696
				C124.059,126.001,123.84,126.204,123.575,126.204z"/>
		</g>
		<g>
			<path fill="#111111" d="M111.515,126.204h-0.044c-0.26,0-0.468-0.212-0.464-0.472l0.704-30.451l2.069-0.24l-1.764,30.696
				C112.001,126.001,111.781,126.204,111.515,126.204z"/>
		</g>
		<g>
			<path fill="#111111" d="M144.794,126.204h0.044c0.26,0,0.468-0.212,0.461-0.472l-0.701-30.451l-2.069-0.24l1.765,30.696
				C144.308,126.001,144.526,126.204,144.794,126.204z"/>
		</g>
		<path fill="#858C62" d="M110.145,93.395V72.529c0-3.671,2.975-6.647,6.648-6.647h15.031c3.672,0,6.649,2.977,6.649,6.647v21.66
			L110.145,93.395z"/>
		<path fill="#858C62" d="M141.167,96.69h-29.026c-1.103,0-1.996-0.896-1.996-1.997v-1.299h31.022V96.69z"/>
		<path fill="#858C62" d="M144.646,96.69h-21.96c-0.814,0-1.476-0.664-1.476-1.475V94.87c0-0.815,0.661-1.476,1.476-1.476h21.96
			c0.814,0,1.476,0.66,1.476,1.476v0.346C146.121,96.026,145.46,96.69,144.646,96.69z"/>
	</g>
	<g>
		<path fill="#F1A391" d="M161.074,114.065c0.208,1.049,1.704,0.871,3.375,0.464c1.669-0.406,1.272,0.078,3.65-0.185
			s3.096-1.149,3.169-1.503c0.065-0.312-1.11-0.423-2.369-0.57c-0.158-0.018-0.317-0.037-0.478-0.055
			c-1.422-0.179-2.463-1.097-3.756-1.854c-1.224-0.712-3.05-3.623-3.05-3.623l-3.26,0.261c0,0,1.712,2.599,2.373,3.728
			c0.389,0.665,0.367,1.543,0.319,2.223C161.023,113.318,161.001,113.695,161.074,114.065z"/>
		<path fill="#BC946E" d="M164.449,114.529c1.669-0.406,1.272,0.078,3.65-0.185s3.096-1.149,3.169-1.503
			c0.065-0.312-1.11-0.423-2.369-0.57l-0.012,0.024c0,0-1.444,0.43-3.424,0.478c-1.612,0.041-3.301,0.158-4.415,0.178
			c-0.025,0.367-0.048,0.744,0.025,1.114C161.282,115.114,162.778,114.937,164.449,114.529z"/>
		<path fill="#F1A391" d="M133.059,118.754c-0.647,0.855,0.473,1.858,1.883,2.843c1.411,0.985,0.783,1.006,2.555,2.611
			c1.771,1.612,2.912,1.565,3.226,1.386c0.277-0.16-0.416-1.115-1.142-2.155c-0.093-0.132-0.181-0.263-0.272-0.396
			c-0.807-1.184-0.808-2.57-1.098-4.038c-0.273-1.392,1.997-6.497,1.997-6.497l-3.648-0.463c0,0-0.474,3.087-0.885,4.329
			c-0.242,0.732-1.255,1.212-1.794,1.627C133.586,118.224,133.286,118.457,133.059,118.754z"/>
		<path fill="#BC946E" d="M134.941,121.597c1.411,0.985,0.783,1.006,2.555,2.611c1.771,1.612,2.912,1.565,3.226,1.386
			c0.277-0.16-0.416-1.115-1.142-2.155l-0.024,0.008c0,0-1.29-0.696-2.635-2.151c-1.095-1.187-2.293-2.473-3.041-3.295
			c-0.294,0.224-0.594,0.457-0.821,0.754C132.411,119.609,133.531,120.612,134.941,121.597z"/>
		<path fill="#AA8465" d="M147.952,92.638l-3.332,8.965l-4.347,11.701c0,0-1.182,0.116-2.31-0.209
			c-1.042-0.301-2.235-1.088-2.235-1.088s1.208-12.567,3.46-19.78c0.577-1.853,1.226-3.347,1.938-4.188
			C144.617,83.907,147.952,92.638,147.952,92.638z"/>
		<path fill="#BC946E" d="M144.566,78.404c-2.182-0.701-8.758-0.284-15.01,0.94l-0.958-1.674l-13.503-1.056
			c0,0-4.454,9.883-2.016,16.177c0.358,0.927,1.071,1.521,2.286,1.543c0,0,0.195-0.002,0.195,0c0,0,8.039-0.006,10.647-0.006
			c6.717,0,14.213-4.616,15.182-4.812c1.588-0.316,2.224,2.856,3.811,6.191c1.586,3.333,14.921,14.764,14.921,14.764
			s2.05,0.016,2.896-0.3c0.91-0.342,1.243-0.787,1.243-0.787S149.488,79.992,144.566,78.404z"/>
		<path fill="#233862" d="M123.871,36.795c-1.901-0.452-4.481,0.079-4.91,0.129c-5.129,0.597-6.275,8.565-5.894,10.792
			c0.705,4.108-1.268,5.264-3.622,8.548c-4.719,6.587-1.459,12.01,2.382,13.351c2.306,0.808,5.445-1.387,5.445-1.387
			c0.058,0.021,8.151-7.709,12.158-11.464C136.164,53.99,128.714,37.949,123.871,36.795z"/>
		<path fill="#F1A391" d="M124.969,55.577c0.023,0.007-2.087,1.386-3.809,1.097c-1.62-0.271-3.332-2.386-3.311-2.392
			c0.653-0.198,1.231-0.965,0.823-4.903l0.31,0.027l5.172,0.498c0,0,0.045,1.61,0.191,3.113
			C124.469,54.28,124.666,55.47,124.969,55.577z"/>
		<path fill="#DB9B91" d="M124.154,49.904c0,0,0.045,1.61,0.191,3.113c-2.847,0.206-4.605-2.236-5.363-3.611L124.154,49.904z"/>
		<path fill="#F1A391" d="M125.246,51.234c0,0-6.707,0.784-7.129-3.398c-0.425-4.185-1.576-6.9,2.688-7.58
			c4.263-0.675,5.257,0.835,5.738,2.198C127.024,43.815,126.979,50.921,125.246,51.234z"/>
		<path fill="#233862" d="M125.744,40.306c0,0-3.235,4.636-5.986,5.644c-2.75,1.009-4.052,0.375-4.052,0.375
			s1.313-1.806,1.747-4.292c0.126-0.734,0.635-1.342,1.337-1.588C120.761,39.758,124.562,38.704,125.744,40.306z"/>
		<path fill="#233862" d="M123.069,40.647c0,0,1.729,0.987,2.421,1.873c0.667,0.852,1.38,3.119,1.276,4.117
			c0,0,1.091-4.759-0.656-6.49C124.26,38.312,123.069,40.647,123.069,40.647z"/>
		<path fill="#F0C574" d="M130.123,66.674c-0.201,13.546-0.055,10.719-1.538,12.003c-0.355,0.31-1.358,0.494-2.679,0.58
			c-4.154,0.277-11.454-0.409-11.732-1.176c-0.958-2.654-0.281-3.481-1.08-7.547c-0.084-0.433-0.187-0.901-0.308-1.41
			c-0.667-2.793-1.315-3.744,1.048-8.231c2.145-4.063,4.461-7.31,4.661-7.191c5.655,3.359,6.024,0.483,6.024,0.483
			S130.224,60.07,130.123,66.674z"/>
		<path fill="#BC946E" d="M144.62,101.603l-4.446,12.188c0,0-1.597,0.521-2.761,0.353c-1.187-0.173-1.835-0.82-1.835-0.82
			s1.358-13.884,3.61-21.097L144.62,101.603z"/>
		<path fill="#F0C574" d="M124.52,54.185c0,0,5.82,0.988,6.504,3.495c0.684,2.504,5.682,16.315,5.682,16.315
			s-3.937,1.455-5.301,0.088c-1.368-1.365-4.758-12.683-4.758-12.683L124.52,54.185z"/>
		<path fill="#F0C574" d="M125.906,79.257c-4.154,0.277-11.454-0.409-11.732-1.176c-0.958-2.654-0.281-3.481-1.08-7.547l1.947-4.436
			c0,0-0.276,5.075,1.577,6.729c1.851,1.65,7.585,3.19,8.483,4.569C125.537,78.06,125.822,78.723,125.906,79.257z"/>
		<g>
			<path fill="#FFB27D" d="M126.243,76.368c0,0,1.238,1.064,1.589,1.15c0.354,0.087,0.554,0.01,0.554,0.01l-0.902-1.057
				L126.243,76.368z"/>
			<path fill="#FFB27D" d="M125.754,75.109l3.132,0.812c0,0-0.082,0.22-0.436,0.275c-0.354,0.053-1.307-0.093-1.307-0.093
				L125.754,75.109z"/>
			<path fill="#FFB27D" d="M120.443,76.836c0,0,4.471-1.985,5.311-1.727c0.84,0.263,2.99,1.406,3.328,1.883
				c0.339,0.479-1.761-0.059-2.417-0.101c-0.426-0.028-1.411,0.556-1.903,0.838c-2.057,1.182-3.488,1.078-3.488,1.078
				L120.443,76.836z"/>
		</g>
		<path fill="#F0C574" d="M118.495,53.702c0,0-6.325,1.188-7.499,2.941c-2.558,3.825-8,19.674-4.952,21.804
			c3.434,2.394,15.625,0.624,15.625,0.624s0.405-1.897-0.159-2.814c-0.564-0.915-9.737-2.396-10.16-2.822
			c-0.425-0.421,4.183-6.545,3.69-7.716C113.47,61.968,118.495,53.702,118.495,53.702z"/>
		<g>
			<path fill="#F1A391" d="M143.499,76.161c0,0,4.428,1.195,4.883,1.882c0.456,0.688,1.347,2.787,1.309,3.337
				c-0.039,0.548-1.246-1.087-1.699-1.503c-0.294-0.27-1.354-0.431-1.877-0.516c-1.316-0.211-1.949-0.814-2.443-1.113
				c-0.332-0.202-0.734-0.165-0.734-0.165L143.499,76.161z"/>
			<path fill="#F1A391" d="M147.995,79.248c0,0,0.27,1.507,0.475,1.776c0.204,0.271,0.396,0.331,0.396,0.331l-0.03-1.302
				L147.995,79.248z"/>
			<path fill="#F1A391" d="M148.382,78.043l1.8,2.439c0,0-0.192,0.112-0.481-0.055c-0.289-0.173-0.896-0.838-0.896-0.838
				L148.382,78.043z"/>
			<path fill="#F1A391" d="M143.671,78.248c0,0,0.41,0.995,1.229,1.353c0.818,0.355,1.423,0.894,1.553,0.699
				c0.131-0.19-0.62-1.208-0.62-1.208L143.671,78.248z"/>
		</g>
		<path fill="#F0C574" d="M135.529,70.729l9.312,5.886c0,0-0.979,1.309-1.307,1.428c-1.723,0.632-9.476,0.026-12.13-3.96
			L135.529,70.729z"/>
		<g>
			<path fill="#F9DDBF" d="M131.839,77.126c0.552,0,6.016-0.379,6.016-0.379s-0.158,0.969,0.181,1.487l-5.326,1.018l-1.094-0.319
				L131.839,77.126z"/>
			<g>
				<path fill="#F99746" d="M122.727,78.005l9.112-0.879c0,0-0.318,1.688,0.87,2.126l-10.048,0.736
					C122.661,79.988,121.852,78.848,122.727,78.005z"/>
				<path fill="#F99746" d="M137.838,76.865l-6.158,0.479c0,0,0.046-0.214,0.159-0.218c0.118-0.003,6.121-0.438,6.121-0.438
					l-0.021,0.169L137.838,76.865z"/>
				<polygon fill="#F99746" points="132.709,79.252 138.135,78.224 138.084,78.081 132.304,79.188 				"/>
			</g>
		</g>
	</g>
</g>
<g>
	<g>
		<g>
			<path fill="#111111" d="M72.863,127.23h-0.048c-0.279,0-0.503-0.236-0.499-0.515l0.755-32.905l2.223-0.261l-1.896,33.168
				C73.383,127.004,73.147,127.23,72.863,127.23z"/>
		</g>
		<g>
			<path fill="#111111" d="M59.907,127.23h-0.048c-0.279,0-0.503-0.236-0.498-0.515l0.755-32.905l2.223-0.261l-1.896,33.168
				C60.427,127.004,60.192,127.23,59.907,127.23z"/>
		</g>
		<g>
			<path fill="#111111" d="M95.657,127.23h0.047c0.279,0,0.504-0.236,0.498-0.515l-0.755-32.905l-2.222-0.261l1.895,33.168
				C95.136,127.004,95.371,127.23,95.657,127.23z"/>
		</g>
		<path fill="#6E724F" d="M58.434,91.772v-22.55c0-3.967,3.197-7.184,7.141-7.184h16.149c3.945,0,7.143,3.217,7.143,7.184v23.408
			L58.434,91.772z"/>
		<path fill="#6E724F" d="M91.762,95.332H60.584c-1.188,0-2.15-0.964-2.15-2.153v-1.406h33.328V95.332z"/>
		<path fill="#6E724F" d="M95.493,95.332H71.911c-0.878,0-1.591-0.713-1.591-1.593v-0.378c0-0.88,0.713-1.589,1.591-1.589h23.582
			c0.878,0,1.589,0.709,1.589,1.589v0.378C97.083,94.619,96.372,95.332,95.493,95.332z"/>
	</g>
	<g>
		<path fill="#F9DDBF" d="M82.812,53.711c0,0-1.351,1.151-1.645,4.134c-0.223,2.264,1.348,19.842,2.53,21.241
			c3.326,3.931,7.494,2.271,9.127,2.867l1.54-1.383c0,0-5.415-3.998-5.828-5.303C86.949,70.247,87.934,55.609,82.812,53.711z"/>
		<path fill="#163560" d="M81.84,39.373c0,0,0.092-3.224-4.161-3.855c-4.252-0.633-5.426,0.36-6.149,1.446
			c-0.724,1.083-2.079,5.511-1.943,7.274c0.136,1.762,4.986,3.941,4.906,4.969C74.414,50.233,81.84,39.373,81.84,39.373z"/>
		<path fill="#F1A391" d="M101.562,124.445c-0.137,1.091,1.348,1.41,3.078,1.561c1.728,0.149,1.192,0.493,3.55,1.02
			c2.356,0.523,3.332-0.099,3.515-0.42c0.165-0.287-0.923-0.779-2.081-1.334c-0.146-0.068-0.293-0.139-0.438-0.209
			c-1.302-0.646-2.002-1.88-2.994-3.038c-0.939-1.095-1.747-4.528-1.747-4.528l-3.199-0.817c0,0,0.796,3.089,1.065,4.408
			c0.156,0.771-0.146,1.621-0.413,2.268C101.756,123.701,101.61,124.061,101.562,124.445z"/>
		<path fill="#233862" d="M104.64,126.006c1.728,0.149,1.192,0.493,3.55,1.02c2.356,0.523,3.332-0.099,3.515-0.42
			c0.165-0.287-0.923-0.779-2.081-1.334l-0.019,0.017c0,0-1.69,0.517-3.598-0.085c-1.554-0.493-3.039-1.502-4.109-1.849
			c-0.142,0.347-0.288,0.706-0.336,1.091C101.425,125.536,102.91,125.855,104.64,126.006z"/>
		<path fill="#ED7D2B" d="M77.603,80.024c0,0,21.394,2.222,24.92,5.496c3.527,3.275,2.898,33.784,2.898,33.784
			c-0.548,0.57-0.953,0.558-1.821,0.489c-0.833-0.065-2.529-0.781-2.529-0.781s-4.582-14.982-4.639-18.451
			c-0.057-3.469-0.781-9.354-2.237-9.7c-1.456-0.351-18.775,1.594-20.673-3.88c-1.898-5.47,1.253-9.971,1.253-9.971L77.603,80.024z"
			/>
		<path fill="#F9DDBF" d="M67.609,85.528c0.924,0.618,2.575,1.57,5.344,1.671c4.956,0.177,11.139-0.411,12.356-1.561
			c0.316-0.299,0.471-0.789,0.514-1.411c0.134-1.905-0.773-5.032-1.383-7.623c-0.396-1.681-0.666-3.135-0.445-3.877
			c0.672-2.263,2.761-6.871,2.942-8.385c0.18-1.512-1.627-9.625-4.126-10.632c-2.499-1.005-12.141,0-12.141,0
			c-3.767,0.766-3.927,8.797-2.674,15.636c0.031,0.174,0.064,0.349,0.099,0.521C69.45,76.812,65.034,83.802,67.609,85.528z"/>
		<g>
			<path fill="#F1A391" d="M80.067,55.19c-0.068,0.44-1.274,1.155-3.851,0.476c-2.47-0.651-2.767-1.456-2.767-1.988
				c0.001-0.627,1.075-1.475,1.06-5.342l0.296,0.056l4.979,0.987c0,0-0.114,1.564-0.117,3.043
				C79.665,53.663,80.18,54.458,80.067,55.19z"/>
			<path fill="#DB9B91" d="M79.786,49.379c0,0-0.114,1.564-0.117,3.043c-2.787-0.079-4.26-2.622-4.862-4.03L79.786,49.379z"/>
			<path fill="#F1A391" d="M80.716,50.776c0,0-6.592,0.109-6.597-3.997c-0.005-4.107-0.859-6.859,3.351-7.102
				c4.209-0.244,5.028,1.322,5.363,2.693C83.168,43.741,82.431,50.642,80.716,50.776z"/>
			<path fill="#163560" d="M80.472,39.576c0,0-1.805,4.817-4.576,5.532c-2.77,0.71-3.972-0.031-3.972-0.031s2.125-1.688,2.566-4.634
				C74.491,40.443,79.111,37.283,80.472,39.576z"/>
			<path fill="#163560" d="M80.023,39.968c0,0,1.349,1.075,1.678,2.12c0.329,1.047,0.477,3.2,1.104,3.126
				c0,0,1.36-3.274-0.168-5.126C81.017,38.124,80.023,39.968,80.023,39.968z"/>
		</g>
		<path fill="#F1A391" d="M85.496,125.339c-0.016,1.1,1.495,1.246,3.229,1.198c1.735-0.049,1.24,0.353,3.641,0.602
			c2.401,0.251,3.299-0.483,3.446-0.823c0.13-0.301-1.005-0.666-2.218-1.084c-0.151-0.051-0.304-0.104-0.457-0.161
			c-1.365-0.485-2.199-1.632-3.313-2.666c-1.056-0.984,1.274-5.731,1.274-5.731l-3.054-1.509c0,0-0.58,3.388-1.325,6.353
			c-0.193,0.767-0.821,2.028-1.013,2.701C85.604,124.579,85.5,124.953,85.496,125.339z"/>
		<path fill="#F2CCAA" d="M67.741,84.712c0.924,0.618,2.443,2.387,5.213,2.487c4.569-1.042,9.775-2.251,12.87-2.972
			c0.134-1.905-0.773-5.032-1.383-7.623c-3.611,1.105-8.983-2.65-10.788-4.138c-1.898-1.558-1.839-6.753-1.839-6.753l-3.817,3.633
			c0.031,0.174,0.064,0.349,0.099,0.521C69.45,76.812,65.166,82.986,67.741,84.712z"/>
		<path fill="#233862" d="M88.725,126.537c1.735-0.049,1.24,0.353,3.641,0.602c2.401,0.251,3.299-0.483,3.446-0.823
			c0.13-0.301-1.005-0.666-2.218-1.084l-0.016,0.023c0,0-1.621,0.706-3.583,0.324c-1.6-0.306-3.187-1.143-4.289-1.361
			c-0.104,0.361-0.207,0.735-0.211,1.121C85.479,126.438,86.991,126.585,88.725,126.537z"/>
		<path fill="#F99746" d="M72.986,81.329c5.432-0.154,21.656,1.142,24.772,3.489c3.838,2.896-7.122,34.171-7.122,34.171
			s-1.273,0.124-1.675,0.079c-1.742-0.197-2.451-0.729-2.451-0.729s0.043-18.408,1.323-21.931c1.184-3.252,1.909-4.406,0.426-4.599
			c-1.483-0.192-19.983,2.166-21.527-3.419c-1.206-4.361,0.576-8.399,0.576-8.399S67.976,81.473,72.986,81.329z"/>
		<path fill="#F9DDBF" d="M70.671,53.711c0,0-3.774,0.32-4.067,3.304c-0.223,2.263-1.863,18.329-0.682,19.724
			c3.325,3.93,14.415,4.763,16.047,5.359l0.45-1.859c0,0-11.838-5.964-11.657-7.319C70.942,71.562,74.288,53.176,70.671,53.711z"/>
		<path fill="#163560" d="M73.583,37.137c0,0,0.271-1.719-2.115-2.165c-2.386-0.443-2.432,4.625-2.687,5.848
			c-0.256,1.222,0.381,1.953,1.292,2.026C70.984,42.92,73.583,37.137,73.583,37.137z"/>
		<g>
			<path fill="#F1A391" d="M82.548,80.158c0,0,3.371-0.954,4.174-0.729c0.803,0.222,3.554,2.044,3.168,2.538
				c-0.388,0.499-2.812-0.298-3.927-0.146c-1.116,0.148-1.979,0.7-2.781,0.582c-0.803-0.119-1.643-0.436-1.643-0.436L82.548,80.158z
				"/>
			<path fill="#F1A391" d="M82.548,80.158c0,0,1.648-0.847,2.117-1.329c0.061-0.062,0.16-0.05,0.206,0.021
				c0.127,0.2,0.244,0.584-0.335,0.963C83.703,80.361,82.548,80.158,82.548,80.158z"/>
		</g>
		<g>
			<path fill="#F1A391" d="M94.363,80.57c0,0,3.499,0.188,4.186,0.662c0.688,0.474,2.698,3.088,2.173,3.429
				c-0.527,0.343-2.563-1.19-3.667-1.41c-1.104-0.222-2.098,0.019-2.819-0.354c-0.722-0.377-1.413-0.944-1.413-0.944L94.363,80.57z"
				/>
		</g>
	</g>
</g>
<g>
	<g>
		<path fill="#1B3051" d="M70.329,127.514H56.093c-0.686-0.834-0.432-3.92-0.329-4.925c0.021-0.202,0.036-0.32,0.036-0.32
			s4.861-3.89,5.529-0.911c0.02,0.094,0.043,0.185,0.072,0.274c0.84,2.785,4.615,4.051,6.793,4.402
			C69.611,126.262,70.135,127.004,70.329,127.514z"/>
		<path fill="#233862" d="M31.484,81.257c0.515,0,24.385,4.482,28.334,9.369c1.974,2.443,2.266,30.643,2.266,30.643
			s-2.441,3.025-7.71,1.271c0,0-3.865-19.296-3.58-25.15c0.079-1.616-16.31-0.233-19.31-1.007
			c-2.999-0.776-10.329-7.302-8.714-10.48C24.385,82.722,31.484,81.257,31.484,81.257z"/>
		<path fill="#F1A391" d="M48.769,79.932c0,0,1.526,1.32,3.094,1.691c0.894,0.211,1.759,0.454,2.273,0.69
			c1.418,0.651,4.108,3.556,3.857,3.844c-0.802,0.927-4.032-1.483-4.649-1.312c-0.618,0.168,1.013,1.57,0.366,1.949
			c-0.338,0.198-0.975-1.014-1.569-1.181c-0.806-0.231-1.342-1.449-1.582-1.53c-0.471-0.163-2.434-1.923-2.434-1.923L48.769,79.932z
			"/>
		<path fill="#1E3C68" d="M76.62,127.514H62.385c-0.685-0.834-0.434-3.92-0.33-4.925c0.021-0.202,0.036-0.32,0.036-0.32
			s4.862-3.89,5.529-0.911c0.021,0.094,0.045,0.185,0.071,0.274c0.842,2.785,4.616,4.051,6.795,4.402
			C75.902,126.262,76.426,127.004,76.62,127.514z"/>
		<path fill="#2B478B" d="M38.52,81.257c0.513,0,24.384,4.482,28.333,9.369c1.971,2.443,2.265,30.643,2.265,30.643
			s-2.44,3.025-7.71,1.271c0,0-3.864-19.296-3.579-25.15c0.078-1.616-16.31-0.233-19.309-1.007
			c-3.001-0.776-10.33-7.302-8.715-10.48C31.419,82.722,38.52,81.257,38.52,81.257z"/>
		<path fill="#F1A391" d="M37.024,52.248c-1.718-0.141-3.518-0.6-5.073-1.104c-1.946-0.631-3.514-1.554-2.504-3.333
			c0.933-1.639,2.438-5.299,2.336-8.33l3.62,2.916l2.459,1.982c0,0-0.011,1.167-0.279,3.215c-0.049,0.373-0.105,0.775-0.173,1.206
			c-0.055,0.348,0.105,0.695,0.405,0.881c0.018,0.011,0.036,0.022,0.056,0.033C39.091,50.483,38.463,52.367,37.024,52.248z"/>
		<path fill="#DB9B91" d="M37.863,43.897c0,0,0.125,0.423-0.09,1.988c-2.192-0.356-4.242-2.105-4.242-2.105
			c1.116-0.304,1.523-1.512,2.354-1.399L37.863,43.897z"/>
		<path fill="#F1A391" d="M39.891,44.253c0,0-8.432,1.401-9.225-3.862c-0.791-5.266-2.412-8.63,2.938-9.747
			c5.351-1.117,6.701,0.734,7.393,2.427C41.688,34.764,42.064,43.754,39.891,44.253z"/>
		<path fill="#493333" d="M42.237,30.741c0.362,1.268-0.606,2.813-2.234,3.32c-2.414,0.754-1.881,3.716-2.967,3.676
			c-1.087-0.041-1.525-1.703-2.496-0.375c-0.828,1.134,0.689,2.477,0.585,3.097c-0.181,1.067-1.85,3.25-3.356,3.14
			c-1.506-0.108-4.323-7.265-3.759-9.478c0.564-2.214,2.817-4.548,4.951-4.869s5.094,0.6,5.779,0.6
			C39.423,29.853,42.041,30.058,42.237,30.741z"/>
		<path fill="#FFFFFF" d="M44.328,79.679c-0.14,1.217-0.396,2.041-0.799,2.312c-1.256,0.842-2.922,1.886-4.784,2.924
			c-6.595,3.678-15.625,7.227-17.461,1.015c-2.159-7.306-0.74-21.014,1.375-29.527c1.218-4.906,4.587-10.053,6.864-10.048
			c3.881,0.006,9.46,1.033,11.712,6.589c0.872,2.152,2.153,9.61,2.809,16.443C44.434,73.462,44.601,77.309,44.328,79.679z"/>
		<path fill="#DFEBFD" d="M29.132,46.4l0.879-1.978c0,0,7.791,0.794,9.111,5.27C39.122,49.692,33.101,46.498,29.132,46.4z"/>
		<path fill="#DFEBFD" d="M44.328,79.679c-0.14,1.217-0.396,2.041-0.799,2.312c-1.256,0.842-2.922,1.886-4.784,2.924
			c-1.94-1.182-5.925-3.997-6.856-7.314c-1.218-4.339-0.365-9.679-0.365-9.679L44.328,79.679z"/>
		<path fill="#FFFFFF" d="M30.713,53.08c0,0,0.675,18.646,1.735,22.332c1.809,6.289,18.3,8.526,18.3,8.526s0.972-1.104,0.537-2.93
			c0,0-9.859-7.771-10.147-9.251c-0.288-1.479,2.149-11.506-0.636-15.15C37.717,52.961,32.583,49.801,30.713,53.08z"/>
	</g>
	<g>
		<g>
			<path fill="#111111" d="M10.037,127.338H9.982c-0.443-0.009-0.786-0.373-0.745-0.788L12.2,96.956l2.585,0.233l-4.254,29.749
				C10.497,127.171,10.285,127.342,10.037,127.338z"/>
		</g>
		<g>
			<path fill="#111111" d="M25.287,127.338h-0.055c-0.444-0.009-0.788-0.373-0.745-0.788l2.963-29.594l2.585,0.233l-4.254,29.749
				C25.747,127.171,25.535,127.342,25.287,127.338z"/>
		</g>
		<g>
			<path fill="#111111" d="M53.916,127.338h0.054c0.444-0.009,0.787-0.373,0.745-0.788l-2.963-29.594l-2.584,0.233l4.253,29.749
				C53.454,127.171,53.666,127.342,53.916,127.338z"/>
		</g>
		<path fill="#858C62" d="M10.874,92.769L8.062,68.052c-0.368-3.56,0.823-7.046,5.962-7.316l9.041-0.551
			c5.359-0.221,7.778,4.238,8.458,7.673l5.367,27.166L10.874,92.769z"/>
		<path fill="#6E724F" d="M12.385,97.389h40.127c0.807,0,1.467-0.657,1.467-1.463v-1.805c0-0.806-0.66-1.467-1.467-1.467H10.92
			v3.271C10.92,96.731,11.578,97.389,12.385,97.389z"/>
		<path fill="#6E724F" d="M12.057,97.389h23.694c0.625,0,1.138-0.509,1.138-1.136v-2.46c0-0.627-0.513-1.139-1.138-1.139H10.92
			v3.599C10.92,96.88,11.432,97.389,12.057,97.389z"/>
	</g>
</g>
<g>
	<polygon fill="#0F2E35" points="196.578,96.442 198.22,96.442 201.722,126.873 200.078,126.873 	"/>
	<polygon fill="#0F2E35" points="185.036,96.442 183.396,96.442 179.894,126.873 181.536,126.873 	"/>
	<polygon fill="#0F2E35" points="167.833,96.442 169.473,96.442 172.973,126.873 171.332,126.873 	"/>
	<polygon fill="#0F2E35" points="156.292,96.442 154.65,96.442 151.148,126.873 152.792,126.873 	"/>
	<path fill="#6E724F" d="M172.575,99.751c-2.625,0-4.536-2.132-4.27-4.756l3.703-36.163c0.269-2.625,2.617-4.752,5.242-4.752h22.402
		c2.627,0,4.54,2.127,4.27,4.752l-3.703,36.163c-0.27,2.624-2.617,4.756-5.242,4.756H172.575L172.575,99.751z"/>
	<path fill="#858C62" d="M166.354,99.751c-2.625,0-4.536-2.132-4.268-4.756l3.703-36.163c0.269-2.625,2.614-4.752,5.24-4.752h22.403
		c2.629,0,4.538,2.127,4.267,4.752l-3.698,36.163c-0.271,2.624-2.619,4.756-5.245,4.756H166.354L166.354,99.751z"/>
	<path fill="#6E724F" d="M163.352,101.418c-2.461,0-4.249-1.995-3.999-4.458l0,0c0.253-2.461,2.45-4.453,4.909-4.453h31.756
		c2.458,0,4.25,1.992,4,4.453l0,0c-0.253,2.463-2.45,4.458-4.911,4.458H163.352L163.352,101.418z"/>
	<path fill="#858C62" d="M155.425,101.418c-2.46,0-4.251-1.995-4-4.458l0,0c0.253-2.461,2.452-4.453,4.911-4.453h31.755
		c2.461,0,4.251,1.992,3.999,4.453l0,0c-0.253,2.463-2.448,4.458-4.909,4.458H155.425L155.425,101.418z"/>
	<g>
		<path fill="#F1A392" d="M173.265,54.136l5.607,2.188c0,0-8.141,9.676-8.683,10.078c-0.529,0.389-12.456,4.898-16.587,6.456
			c-0.477-1.237-0.958-2.46-0.958-2.46l0,0c1.106-0.537,2.899-1.545,2.899-1.545s10.01-5.279,10.541-5.583L173.265,54.136
			L173.265,54.136z"/>
		<path fill="#706D5A" d="M173.338,49.882c0,0-0.551,6.919-0.796,7.203c-0.244,0.282-3.134,9.067-3.134,9.067l-3.926-4.097
			c0,0,1.94-4.186,4.128-7.918C171.954,50.139,173.338,49.882,173.338,49.882L173.338,49.882z"/>
		<path fill="#F1A391" d="M160.143,120.091l-3.769,0.047c0,0-0.188,1.611-0.26,2.403c-0.05,0.518-0.813,0.978-0.96,1.037
			c-1.614,0.674,5.584,3.477,5.584,1.958c0-0.403-0.304-1.499-0.383-1.944C160.355,123.589,160.143,120.091,160.143,120.091
			L160.143,120.091z"/>
		<path fill="#0F2E35" d="M155.174,123.567c-3.455,1.079-6.799,2.551-5.79,2.856c2.548,0.768,11.608,0.027,11.608,0.027
			s0.027-2.61-0.647-2.904c-0.611-0.263-1.752,0.714-2.616,0.596C156.863,124.028,155.174,123.567,155.174,123.567L155.174,123.567z
			"/>
		<path fill="#F1A391" d="M147.926,120.091l-3.494-0.535c0,0-0.138,2.458-0.209,3.254c-0.05,0.514-1.139,0.709-1.286,0.769
			c-1.613,0.674,5.585,3.477,5.585,1.958c0-0.403-0.308-1.499-0.385-1.944C148.135,123.589,147.926,120.091,147.926,120.091
			L147.926,120.091z"/>
		<path fill="#0F2E35" d="M142.953,123.567c-3.451,1.079-6.795,2.551-5.788,2.856c2.549,0.768,11.609,0.027,11.609,0.027
			s0.03-2.61-0.645-2.904c-0.613-0.263-1.755,0.714-2.62,0.596C144.646,124.028,142.953,123.567,142.953,123.567L142.953,123.567z"
			/>
		<path fill="#16385B" d="M171.3,83.43c0,0,2.398,4.136-0.251,6.802c-2.653,2.672-10.701,2.8-10.701,2.8l-7.1-0.363l0.445,4.753
			c0.17,1.793,0,3.608-0.501,5.336l-5.128,17.775c-0.213,0.23-4.277,0-4.277,0s0.083-31.859,1.311-34.549
			c1.229-2.683,9.001-2.484,9.001-2.484L171.3,83.43L171.3,83.43z"/>
		<path fill="#345389" d="M182.962,81.533c0,0,3.235,8.153,0.582,10.822c-0.854,0.856-19.847,1.234-19.847,1.234l0.272,4.164
			c0.103,1.591-0.014,3.19-0.349,4.751c-1.06,4.918-3.273,17.786-3.266,18.027c0.01,0.201-4.668,0-4.668,0
			S154.047,88.687,155.275,86c1.229-2.688,9.188-3.332,9.188-3.332L182.962,81.533L182.962,81.533z"/>
		<path fill="#3C3A2B" d="M173.338,49.882c-2.541,0.216-3.974,18.06-7.855,32.788l18.371,2.209
			c1.05-7.444,3.114-22.136,3.867-26.569c1.054-6.192-1.572-6.895-2.922-7.501c-0.918-0.41-3.979-0.556-3.979-0.556
			S176.017,49.652,173.338,49.882L173.338,49.882z"/>
		<path fill="#F1A391" d="M179.472,44.483c0,0-4.753-0.425-4.248,1.196c0.508,1.619,0.087,4.909,0.087,4.909
			s-0.795,2.444,0.915,2.717c2.038,0.328,4.97-3.02,4.97-3.02L179.472,44.483L179.472,44.483z"/>
		<path fill="#DB9B91" d="M178.772,46.512c0.261-0.18,0.817-0.594,1.03-0.914l-0.331-1.114c0,0-1.219-0.051-2.571,0.016
			c-1.021,0.12-1.909,0.433-1.677,1.18c0.197,0.633,0.255,1.52,0.25,2.367C176.744,47.723,177.994,47.055,178.772,46.512
			L178.772,46.512z"/>
		<path fill="#F1A391" d="M179.873,35.411c0,0-3.263-3.127-5.979-0.923c-2.715,2.204-2.308,9.897-0.785,11.524
			c1.377,1.471,4.899,0.601,6.606-1.481C181.42,42.447,180.007,35.353,179.873,35.411L179.873,35.411z"/>
		<path fill="#16385B" d="M174.737,30.592c-2.86-0.397-2.73,4.847-1.358,4.446c1.374-0.4,2.865,0.619,2.865,0.619l0.671,0.799
			c0.585,1.064,0.696,2.578,1.067,3.222c0.479,0.835,2.04,1.429,1.623,2.495c-0.16,0.403-0.224,0.888-0.244,1.332
			c-0.033,0.741,0.11,1.479,0.388,2.167l0.378,0.906c0,0-0.143-1.789,1.767-3.465c1.908-1.677,2.979-4.917,1.081-7.661
			c-1.548-2.231-2.94-2.699-3.941-2.753C178.474,32.157,176.964,30.903,174.737,30.592L174.737,30.592z"/>
		<path fill="#F1A391" d="M178.153,40.945c-0.04-0.872,0.334-1.6,0.839-1.624c0.502-0.022,0.949,0.667,0.987,1.54
			c0.041,0.874-0.335,1.603-0.839,1.625C178.633,42.508,178.192,41.821,178.153,40.945L178.153,40.945z"/>
		<path fill="#FFFFFF" d="M175.309,43.15c0,0,0.011,1.127-1.473,1.102c-1.219-0.023-1.294-1.073-1.294-1.073L175.309,43.15
			L175.309,43.15z"/>
		<path fill="#F1A392" d="M173.684,74.426l0.152,3.087c-0.502,0.156-1.553,0.472-2.286,0.68c-0.999,0.276-2.068,0.07-2.362,0.104
			c-0.041,0.007-1.023,0.054-2.251-0.226c-1.056-0.234,0.049-0.513,0.049-0.513s2.031,0.073,2.009-0.096
			c-0.018-0.128-1.127-0.101-2.3-0.353c-0.303-0.062-0.599-0.128-0.872-0.19c-0.714-0.16-0.826-0.663-0.055-0.619
			c0.273,0.017,0.726,0.055,1.049,0.129c0.344,0.083,0.688,0.041,0.987,0.062c0.594,0.044,1.029,0.083,1.017,0.055
			c-0.017-0.033,0.108-0.112-0.211-0.19c-0.383-0.095-1.234-0.109-1.787-0.292c-0.312-0.107-0.979-0.283-0.979-0.283
			s-0.961-0.464-0.951-0.531c0.033-0.365,0.774-0.241,1.183-0.042c0.323-0.013,1.017,0.196,1.017,0.196s1.496,0.089,1.51-0.131
			c0.005-0.093-0.905-0.262-1.773-0.574c-0.809-0.293-1.58-0.722-1.551-0.897c0.05-0.296,0.98-0.076,0.98-0.076
			s0.644,0.195,0.86,0.24c0.258,0.056,1.035,0.159,1.035,0.159s2.72,0.229,2.717,0.021c-0.004-0.211-0.219-0.748-0.384-0.823
			c-0.162-0.076-0.53-0.049-0.696-0.121c-0.165-0.074-0.318-0.322-0.243-0.539c0.068-0.221,0.994-0.169,0.994-0.169
			s0.751,0.043,1.192,0.337C173.25,73.864,173.485,74.303,173.684,74.426L173.684,74.426z"/>
		<path fill="#F1A392" d="M152.835,70.291l1.453,2.32c-0.416,0.318-1.529,1.508-2.15,1.953c-0.841,0.604-1.915,0.782-2.178,0.914
			c-0.039,0.021-0.942,0.404-2.189,0.571c-1.074,0.139-0.135-0.503-0.135-0.503s1.933-0.63,1.854-0.78
			c-0.062-0.118-1.097,0.294-2.283,0.464c-0.305,0.043-0.604,0.086-0.882,0.123c-0.729,0.094-1.006-0.338-0.264-0.562
			c0.261-0.084,0.699-0.206,1.026-0.245c0.351-0.042,0.658-0.201,0.946-0.286c0.574-0.161,0.996-0.274,0.976-0.297
			c-0.028-0.025,0.063-0.144-0.265-0.107c-0.393,0.044-1.196,0.325-1.777,0.345c-0.329,0.008-1.018,0.07-1.018,0.07
			s-1.061-0.1-1.077-0.166c-0.092-0.354,0.643-0.497,1.097-0.448c0.298-0.123,1.022-0.168,1.022-0.168s1.436-0.433,1.371-0.645
			c-0.025-0.091-0.941,0.065-1.865,0.073c-0.857,0.007-1.729-0.132-1.765-0.308c-0.054-0.297,0.896-0.405,0.896-0.405
			s0.668-0.046,0.891-0.074c0.259-0.038,1.022-0.207,1.022-0.207s2.636-0.727,2.56-0.923c-0.079-0.196-0.466-0.625-0.646-0.639
			c-0.183-0.015-0.518,0.14-0.696,0.125c-0.183-0.013-0.41-0.194-0.42-0.421c-0.007-0.228,0.879-0.503,0.879-0.503
			s0.719-0.222,1.234-0.095C152.232,69.913,152.604,70.239,152.835,70.291L152.835,70.291z"/>
		<path fill="#F1A391" d="M189.912,62.055c0,0,1.74,8.12,1.597,8.945c-0.143,0.823-4.461,2.347-4.461,2.347
			s-10.964,3.334-11.649,3.55c-0.349,0.114-0.914,0.381-1.614,0.636l-0.101-3.106c3.588-1.425,12.162-5.963,12.162-5.963
			c-0.013-0.52-0.965-4.863-0.965-4.863L189.912,62.055L189.912,62.055z"/>
		<path fill="#706D5A" d="M191.368,64.958l-6.263,1.322c0,0-5.263-12.983-3.432-14.678c1.834-1.696,4.663-1.377,5.972,1.121
			C188.956,55.222,191.368,64.958,191.368,64.958L191.368,64.958z"/>
	</g>
</g>
<path fill="#FFFFFF" d="M122.907,49.592l1.821-0.092c0,0-0.008,0.691-0.807,0.757C122.948,50.336,122.907,49.592,122.907,49.592
	L122.907,49.592z"/>
<path fill="#FFFFFF" d="M79.259,48.122l1.819-0.093c0,0-0.006,0.692-0.806,0.758C79.298,48.864,79.259,48.122,79.259,48.122
	L79.259,48.122z"/>
<g>
	<g>
		<path fill="#F1A391" d="M190.793,126.009c-0.099,1.349-2.001,1.362-4.161,1.11c-2.159-0.251-1.585,0.298-4.608,0.339
			c-3.022,0.042-4.065-0.956-4.212-1.388c-0.13-0.385,1.325-0.706,2.884-1.087c0.196-0.047,0.392-0.095,0.589-0.146
			c1.757-0.448,2.921-1.762,4.423-2.911c1.424-1.086,3.258-5.021,3.258-5.021l4.132-0.188c0,0-1.737,3.528-2.395,5.051
			c-0.383,0.893-0.219,1.991-0.053,2.835C190.74,125.064,190.83,125.533,190.793,126.009z"/>
		<path fill="#C49E79" d="M186.632,127.119c-2.159-0.251-1.585,0.298-4.608,0.339c-3.022,0.042-4.065-0.956-4.212-1.388
			c-0.13-0.385,1.325-0.706,2.884-1.087l0.02,0.029c0,0,2.445-0.097,4.936-0.347c2.029-0.205,3.601,0.091,4.999-0.062
			c0.091,0.46,0.181,0.929,0.144,1.404C190.694,127.357,188.792,127.371,186.632,127.119z"/>
	</g>
	<g>
		<path fill="#F1A391" d="M219.316,126.287c-0.095,1.349-1.999,1.366-4.158,1.116c-2.159-0.249-1.586,0.298-4.606,0.343
			c-3.025,0.045-4.068-0.952-4.216-1.382c-0.131-0.385,1.327-0.708,2.883-1.091c0.197-0.048,0.395-0.099,0.59-0.146
			c1.757-0.449,2.918-1.765,4.419-2.914c1.424-1.089,0.002-7.534,0.002-7.534l4.543-0.442c0,0-0.219,5.427-0.215,7.896
			c0,0.973,0.449,1.909,0.617,2.753C219.264,125.343,219.353,125.812,219.316,126.287z"/>
		<path fill="#C49E79" d="M215.158,127.403c-2.159-0.249-1.586,0.298-4.606,0.343c-3.025,0.045-4.068-0.952-4.216-1.382
			c-0.131-0.385,1.327-0.708,2.883-1.091l0.02,0.029c0,0,2.221,0.104,4.709-0.147c2.031-0.205,3.827-0.118,5.228-0.271
			c0.089,0.458,0.178,0.927,0.142,1.402C219.222,127.636,217.317,127.653,215.158,127.403z"/>
	</g>
	<path d="M206.06,14.877c-0.781-3.216,0.353-4.715,1.376-5.511c0.485-1.185,1.04-2.039,1.605-2.36
		c1.031-0.585,2.268-0.651,3.136-0.6c-0.226-0.23-0.663-0.314-0.663-0.314c0.536-0.08,1.735,0.453,1.735,0.453
		c7.464-2.877,8.637,8.115,8.481,10.668c-0.156,2.554-0.136,5.561,3.748,7.573c7.409,3.839-2.463,18.304-2.463,18.304
		c0.188-2.063-9.333-12.954-14.3-16.214c-1.209-1.781-1.639-4.925-1.672-5.171c0.209,2.493,0.637,3.893,1.018,4.679
		C205.797,24.3,205.462,19.296,206.06,14.877z"/>
	<path fill="#F1A391" d="M209.01,27.039c-0.023,0.012,2.397,1.269,4.222,0.771c1.714-0.467,2.834-2.692,2.81-2.696
		c-0.726-0.146-0.935-1.143-0.919-5.431l-0.327,0.065l-5.521,1.094c0,0,0.127,1.735,0.131,3.372
		C209.408,25.589,209.323,26.892,209.01,27.039z"/>
	<path fill="#F1A391" d="M209.273,20.843c0,0,0.127,1.735,0.131,3.372c3.088-0.088,4.721-2.905,5.391-4.466L209.273,20.843z"/>
	<path fill="#345389" d="M186.819,119.092c-0.271,0.85,0.338,1.723,1.227,1.765l2.155,0.103l2.282,0.066
		c0.571,0.019,1.115-0.23,1.477-0.67c1.822-2.234,7.428-9.683,10.826-20.5c0.097-0.302,0.196-0.611,0.304-0.921
		c2.245-6.547,6.899-14.768,9.354-22.204c0.391-1.185,0.741-2.299,1.053-3.355c0.103-0.34,0.199-0.671,0.294-0.998
		c1.809-6.28,2.333-10.406,2.815-14.811l-17.715,0.142C200.892,57.708,197.162,86.69,186.819,119.092z"/>
	<path fill="#C49E79" d="M203.372,47.529c0.045,8.43-1.236,12.045-1.236,12.045s7.584,3.854,16.598,1.018
		c0.104-0.035,6.448-1.829,6.448-1.829c-0.15-0.343-1.404-5.983-1.551-6.294c-1.902-4.088-2.421-5.804-2.646-7.06
		c-0.42-2.346-0.431-4.774-0.222-7.062c0.551-6.06,2.186-11.09,2.186-11.09c-2.455-0.559-4.757-1.542-7.312-2.5
		c-0.587,0.733-2.386,1.499-3.943,1.463c-1.795-0.04-2.378-0.809-2.285-1.646c-1.913,1.065-3.441,2.07-3.441,2.07
		c-1.625,2.824-4.924,5.567-5.16,9.899C200.747,37.61,203.37,47.293,203.372,47.529z"/>
	<path fill="#5F9AA8" d="M218.606,48.468c0.773,1.095,2.258,7.756,5.949,8.595c-1.902-4.748-3.346-6.829-3.57-8.29
		c-0.42-2.723-0.431-5.543-0.222-8.201c-1.236-2.167-2.157-3.654-2.157-3.654c-0.099-0.349-1.966-6.125-2.565-0.963
		C215.444,41.118,217.741,47.243,218.606,48.468z"/>
	<path fill="#F1A391" d="M208.244,22.391c0,0,7.307,0.122,7.312-4.431c0.004-4.551,0.95-7.602-3.716-7.87
		c-4.665-0.27-5.572,1.466-5.945,2.985C205.525,14.593,206.342,22.243,208.244,22.391z"/>
	<path d="M208.515,9.978c0,0,1.999,5.34,5.069,6.13c3.07,0.789,4.403-0.033,4.403-0.033s-2.356-1.872-2.845-5.138
		C215.143,10.937,210.023,7.436,208.515,9.978z"/>
	<path d="M209.01,10.411c0,0-1.495,1.193-1.857,2.351c-0.365,1.16-0.529,3.546-1.225,3.465c0,0-1.507-3.631,0.188-5.683
		C207.911,8.367,209.01,10.411,209.01,10.411z"/>
	<polygon fill="#F1A391" points="196.746,53.38 193.295,63.901 195.264,64.69 200.968,55.394 	"/>
	<path fill="#F99746" d="M206.05,26.024c0,0-4.068,1.616-5.245,4.132c-1.178,2.518-2.962,19.405-3.672,21.139
		c-0.712,1.734-1.244,3.108-1.244,3.108s2.053,1.729,4.115,1.855C202.068,56.387,206.05,26.024,206.05,26.024z"/>
	<path fill="#F99746" d="M209.408,24.574c0,0-4.229,10.443-4.351,12.557c-0.126,2.114-0.499,34.563-0.499,34.563
		s0.251,1.493-2.61,0.87c-2.859-0.621-3.604-1.243-3.604-1.243s2.732-20.018,1.987-26.979c-0.745-6.963,5.719-18.318,5.719-18.318
		L209.408,24.574z"/>
	<path fill="#1E3D70" d="M190.201,120.959l2.477,0.072c0.444,0.015,0.868-0.175,1.15-0.517c1.666-2.017,7.472-9.565,10.958-20.659
		c0.097-0.302,0.196-0.611,0.304-0.921c2.245-6.547,6.899-14.768,9.354-22.204c0.391-1.185,0.741-2.299,1.053-3.355
		c0.103-0.34,0.199-0.671,0.294-0.998l-2.609-1.978c0,0-7.83,12.681-10.256,24.613C200.82,105.379,192.387,117.854,190.201,120.959z
		"/>
	<path fill="#345389" d="M212.91,96.124c-0.042,5.494,0.219,17.729,0.887,23.711c0.062,0.548,0.523,0.962,1.075,0.962h1.848
		c0.781,0,1.362-0.006,1.749-0.012c0.335-0.004,0.621-0.244,0.687-0.574c1.836-9.354,3.153-17.122,4.115-23.836
		c0.807-5.622,1.522-10.439,2.074-14.586c0.555-4.175,0.938-7.669,1.077-10.621c0.021-0.466,0.037-0.917,0.045-1.356
		c0.01-0.442,0.012-0.872,0.008-1.286l-15.304-1.494C211.362,77.202,212.936,92.753,212.91,96.124z"/>
	<path fill="#1E3D70" d="M216.72,120.797c0.7,0,1.242-0.004,1.625-0.01c0.408-0.006,0.755-0.298,0.832-0.696
		c1.828-9.299,3.136-17.031,4.094-23.716c0.807-5.622,1.522-10.439,2.074-14.586c0.555-4.175,0.938-7.669,1.077-10.621l-5.616,3.303
		c0,0,3.583,1.265,2.216,10.838C221.653,94.882,218.625,119.442,216.72,120.797z"/>
	<path fill="#F99746" d="M215.998,71.073c0,0,1.076,3.895,4.808,3.397c3.73-0.497,9.033-2.734,9.033-2.734
		s-1.594-5.039-3.575-11.654c-2.399-8.01-5.371-18.337-6.77-24.852c-0.393-1.824-0.66-3.349-0.761-4.441l-3.097-6.003
		c0,0-4.612,10.355-4.862,12.966C210.528,40.363,215.998,71.073,215.998,71.073z"/>
	<path fill="#F1A391" d="M219.721,37.363l-4.084-12.578c0.015,0.005,5.159,1.531,7.748,2.84c0,0,1.619,2.086,2.619,6.899
		c0,0,1.059,11.558-1.302,15.784c0,0-7.462,1.492-19.397-2.611v-2.735c0,0,13.056,0.684,15.728,0.994L219.721,37.363z"/>
	<path fill="#ED7D2B" d="M216.162,43.223c0.167,4.227,1.163,12.432,10.032,16.826c0.022,0.01,0.044,0.023,0.069,0.033
		c-2.399-8.01-5.371-18.337-6.77-24.852C217.863,37.665,216.071,40.895,216.162,43.223z"/>
	<path fill="#F99746" d="M215.637,24.786c0,0,7.572,0.533,9.396,4.595c1.824,4.061,2.402,17.573,0.083,21.551
		c0,0-3.196,0.91-8.846-0.147c-0.071-0.014-0.141-0.025-0.209-0.039c0,0-1.805-4.414-0.189-5.284c0,0,4.768,0.248,4.269-1.327
		C219.645,42.56,215.637,24.786,215.637,24.786z"/>
	<path fill="#F1A391" d="M193.782,63.614c0,0-3.149,1.741-3.563,3.068c-0.416,1.327-0.132,4.105,0.371,4.064
		c0.501-0.042,1.246-2.985,1.66-3.192s0.996-0.83,0.996-0.373c0,0.456-0.414,1.284-0.209,1.41c0.209,0.122,0.873-1.161,1.329-1.41
		c0.455-0.248,0.646-2.299,1.091-2.85C195.9,63.779,193.782,63.614,193.782,63.614z"/>
	<path fill="#F1A391" d="M205.305,44.963c0,0-2.816-1.735-3.999-1.469c-1.184,0.268-4.196,2.45-2.747,2.922s2.624-0.023,3.181,0.32
		c0.556,0.342,0.968,0.971,3.565,0.961C207.903,47.69,205.305,44.963,205.305,44.963z"/>
</g>
<path fill="#FFFFFF" d="M207.698,20.608l2.78-0.143c0,0-0.01,1.059-1.23,1.158C207.759,21.743,207.698,20.608,207.698,20.608
	L207.698,20.608z"/>
<path fill="#FFFFFF" d="M42.919,41.936c0,0,0.011,1.127-1.474,1.102c-1.217-0.023-1.292-1.073-1.292-1.073L42.919,41.936
	L42.919,41.936z"/>
</svg>
